<mxfile host="app.diagrams.net" modified="2023-11-07T21:49:48.356Z" agent="Mozilla/5.0 (Windows NT 10.0; Win64; x64) AppleWebKit/537.36 (KHTML, like Gecko) Chrome/119.0.0.0 Safari/537.36 Edg/119.0.0.0" version="22.0.8" etag="3eP9ixvxFLXAd2PLHb1f" type="github">
  <diagram name="PÃ¡gina-1" id="RStiSx9FDVFMctBma9l0">
    <mxGraphModel>
      <root>
        <mxCell id="0" />
        <mxCell id="1" parent="0" />
      </root>
    </mxGraphModel>
  </diagram>
</mxfile>
